<?xml version="1.0" standalone="no"?>
<!DOCTYPE svg PUBLIC "-//W3C//DTD SVG 20010904//EN"
 "http://www.w3.org/TR/2001/REC-SVG-20010904/DTD/svg10.dtd">
<svg version="1.0" xmlns="http://www.w3.org/2000/svg"
 width="500.000000pt" height="500.000000pt" viewBox="0 0 500.000000 500.000000"
 preserveAspectRatio="xMidYMid meet">

<g transform="translate(0.000000,500.000000) scale(0.100000,-0.100000)"
fill="#000000" stroke="none">
<path d="M3257 3633 c-4 -3 -7 -21 -7 -40 0 -32 1 -33 40 -33 l40 0 0 40 c0
39 -1 40 -33 40 -19 0 -37 -3 -40 -7z"/>
<path d="M1890 3108 l0 -453 89 -43 c49 -23 129 -67 177 -98 l89 -55 -70 71
c-38 40 -103 99 -142 132 l-73 59 0 385 c0 243 4 384 10 384 20 0 147 -52 208
-85 34 -19 62 -33 62 -30 0 2 -40 30 -88 63 -78 52 -222 122 -251 122 -8 0
-11 -138 -11 -452z"/>
<path d="M2739 3526 c-74 -32 -212 -117 -225 -138 -4 -6 13 1 37 15 45 26 191
87 209 87 6 0 10 -142 10 -387 l-1 -388 -65 -50 c-35 -27 -101 -87 -147 -133
l-82 -83 70 46 c39 25 121 72 182 103 l113 57 0 453 c0 355 -3 452 -12 452 -7
0 -47 -15 -89 -34z"/>
<path d="M3360 3476 c0 -75 -17 -86 -132 -86 l-88 0 0 -105 0 -105 105 0 105
0 0 88 c0 80 2 91 23 110 18 17 36 22 75 22 l52 0 0 65 0 65 -70 0 -70 0 0
-54z"/>
<path d="M1760 2946 l0 -453 88 -7 c118 -10 213 -29 318 -64 97 -32 90 -23
-25 36 -82 43 -173 74 -263 92 l-58 11 0 420 0 419 -30 0 -30 0 0 -454z"/>
<path d="M2910 2982 l0 -418 -104 -26 c-98 -24 -248 -87 -291 -122 -17 -13
-10 -12 37 4 90 30 234 58 336 66 l92 7 0 453 0 454 -35 0 -35 0 0 -418z"/>
<path d="M1565 3261 c-11 -5 -29 -19 -40 -31 -19 -21 -20 -38 -23 -404 -2
-256 0 -393 8 -419 20 -68 20 -68 371 -65 l314 3 -73 23 c-116 37 -215 52
-379 59 l-153 6 0 374 0 373 50 0 50 0 0 45 0 45 -52 -1 c-29 0 -62 -4 -73 -8z"/>
<path d="M3140 2752 l0 -319 -152 -6 c-169 -7 -279 -25 -384 -61 l-69 -25 317
0 317 -1 28 24 28 24 3 341 3 341 -46 0 -45 0 0 -318z"/>
<path d="M2307 2264 c-4 -4 -7 -16 -7 -26 0 -16 -10 -18 -100 -18 -89 0 -100
-2 -110 -20 -8 -14 -8 -26 0 -40 11 -20 19 -20 277 -18 241 3 267 5 277 21 8
12 8 22 0 35 -9 14 -29 17 -112 20 -95 3 -101 4 -104 25 -3 19 -10 22 -58 25
-31 2 -59 0 -63 -4z"/>
<path d="M1930 1840 l0 -110 75 0 c68 0 75 2 75 20 0 18 -7 20 -56 20 -54 0
-55 0 -52 28 3 24 7 27 46 30 28 2 42 8 42 18 0 10 -13 14 -46 14 -44 0 -45 1
-42 28 3 25 7 27 56 30 37 2 52 7 52 18 0 11 -16 14 -75 14 l-75 0 0 -110z"/>
<path d="M2200 1936 c0 -10 13 -16 38 -18 l37 -3 3 -92 c2 -85 4 -93 22 -93
18 0 20 7 20 95 l0 95 35 0 c24 0 35 5 35 15 0 12 -17 15 -95 15 -76 0 -95 -3
-95 -14z"/>
<path d="M2520 1841 c0 -104 1 -111 20 -111 18 0 20 8 22 93 2 50 7 92 12 92
6 0 23 -42 38 -92 l29 -93 44 0 45 0 0 110 c0 103 -1 110 -20 110 -19 0 -20
-7 -20 -91 0 -114 -14 -114 -50 2 l-26 84 -47 3 -47 3 0 -110z"/>
<path d="M2896 1849 c-42 -117 -42 -119 -17 -119 12 0 23 11 30 30 9 28 13 30
61 30 48 0 52 -2 61 -30 7 -20 18 -30 31 -30 12 0 18 5 16 13 -3 6 -20 56 -37
110 l-33 97 -38 0 -38 0 -36 -101z m102 14 l11 -33 -39 0 -39 0 16 46 c13 37
18 43 28 32 7 -7 17 -28 23 -45z"/>
</g>
</svg>
